<?xml version="1.0" encoding="utf-8"?>
<!-- Generator: Adobe Illustrator 16.2.1, SVG Export Plug-In . SVG Version: 6.00 Build 0)  -->
<!DOCTYPE svg PUBLIC "-//W3C//DTD SVG 1.1//EN" "http://www.w3.org/Graphics/SVG/1.1/DTD/svg11.dtd">
<svg version="1.1" id="bbLogo" xmlns="http://www.w3.org/2000/svg" xmlns:xlink="http://www.w3.org/1999/xlink" x="0px" y="0px"
	 width="478.555px" height="289.826px" viewBox="0 0 478.555 289.826" enable-background="new 0 0 478.555 289.826"
	 xml:space="preserve">
<rect fill="#00A651" width="96.422" height="289.826"/>
<rect x="261.326" y="145.194" fill="#FFC20E" width="144.633" height="144.632"/>
<g>
	<path fill="#005BAA" d="M96.422,0c42.282,0,76.559,34.276,76.559,76.558c0,42.281-34.276,76.558-76.559,76.558V0z"/>
</g>
<polygon fill="#FFC20E" points="96.422,166.66 96.422,289.826 219.587,289.826 "/>
<rect x="261.326" fill="#ED1C24" width="96.422" height="145.194"/>
<path fill="#00A651" d="M357.748,0c40.095,0,72.597,32.503,72.597,72.597c0,40.094-32.502,72.597-72.597,72.597V0z"/>
<g>
	<path fill="#005BAA" d="M405.959,289.826c40.094,0,72.596-32.377,72.596-72.316s-32.502-72.316-72.596-72.316V289.826z"/>
</g>
<g>
	<path fill="#ED1C24" d="M96.422,166.655c34.012-34.013,89.157-34.013,123.169,0c34.012,34.012,34.012,89.155,0,123.169
		L96.422,166.655z"/>
</g>
</svg>
